<?xml version="1.0" standalone="no"?>
<svg viewBox="0 0 200 200" xmlns="http://www.w3.org/2000/svg">
  <path fill="#8B74B4" d="M39.1,-54.6C51.3,-45,62.2,-34.4,64.4,-22.2C66.5,-10.1,59.9,3.6,53.4,15.5C47,27.3,40.7,37.3,31.8,50.5C22.9,63.8,11.5,80.3,-1.9,82.9C-15.3,85.5,-30.5,74.2,-39.1,60.9C-47.7,47.6,-49.7,32.2,-57.9,16.6C-66,0.9,-80.4,-14.9,-78.7,-27.3C-77.1,-39.7,-59.5,-48.7,-43.7,-57.1C-27.9,-65.4,-13.9,-73.3,-0.2,-72.9C13.5,-72.6,26.9,-64.1,39.1,-54.6Z" transform="translate(100 100)" />
</svg>
